<svg xmlns="http://www.w3.org/2000/svg" version="1.1" xmlns:xlink="http://www.w3.org/1999/xlink" xmlns:svgjs="http://svgjs.dev/svgjs" viewBox="0 0 14.74616884434861 3.258411274886951"><g transform="matrix(1,0,0,1,3.967311216614791,0.593205884369042)"><rect width="14.74616884434861" height="3.258411274886951" x="-3.9673112166147915" y="-0.593205884369042" fill="#ffffff"></rect><g><path d=" M 0.6045 1.2149999999999999 Q 0.5145 1.2149999999999999 0.46125 1.19475 Q 0.40800000000000003 1.1744999999999999 0.34650000000000003 1.1265 L 0.321 1.194 L 0.084 1.194 L 0.084 0.837 L 0.3195 0.837 Q 0.342 0.8985 0.38925 0.9239999999999999 Q 0.4365 0.9495 0.5055000000000001 0.9495 Q 0.5475 0.9495 0.5775 0.93225 Q 0.6075 0.9149999999999999 0.6075 0.8865 Q 0.6075 0.8504999999999999 0.57675 0.8325 Q 0.546 0.8145 0.4905 0.7994999999999999 Q 0.34950000000000003 0.7605 0.25875 0.7154999999999999 Q 0.168 0.6705 0.1125 0.5864999999999999 Q 0.057 0.5025 0.057 0.36449999999999994 Q 0.057 0.2579999999999999 0.10275000000000001 0.17699999999999982 Q 0.1485 0.09599999999999986 0.234 0.050999999999999934 Q 0.3195 0.006000000000000005 0.435 0.006000000000000005 Q 0.5760000000000001 0.006000000000000005 0.6585 0.09599999999999986 L 0.6960000000000001 0.026999999999999913 L 0.906 0.026999999999999913 L 0.906 0.37649999999999995 L 0.681 0.37649999999999995 Q 0.6495 0.3104999999999999 0.61125 0.2849999999999999 Q 0.5730000000000001 0.25949999999999995 0.507 0.25949999999999995 Q 0.456 0.25949999999999995 0.42825 0.27749999999999997 Q 0.4005 0.2955 0.4005 0.32699999999999996 Q 0.4005 0.36149999999999993 0.44025000000000003 0.38025 Q 0.48 0.3989999999999999 0.5535 0.4155 Q 0.684 0.4454999999999999 0.77475 0.4897499999999999 Q 0.8655 0.5339999999999999 0.92025 0.6157499999999999 Q 0.975 0.6975 0.975 0.8265 Q 0.975 0.9359999999999999 0.92925 1.0245 Q 0.8835000000000001 1.113 0.7987500000000001 1.164 Q 0.714 1.2149999999999999 0.6045 1.2149999999999999 Z M 1.6784999999999999 1.2149999999999999 Q 1.4954999999999998 1.2149999999999999 1.36275 1.137 Q 1.23 1.059 1.1609999999999998 0.92175 Q 1.0919999999999999 0.7845 1.0919999999999999 0.609 Q 1.0919999999999999 0.4274999999999999 1.1609999999999998 0.2909999999999999 Q 1.23 0.15449999999999986 1.3619999999999999 0.08024999999999993 Q 1.4939999999999998 0.006000000000000005 1.6784999999999999 0.006000000000000005 Q 1.863 0.006000000000000005 1.9949999999999999 0.08024999999999993 Q 2.127 0.15449999999999986 2.1959999999999997 0.2909999999999999 Q 2.2649999999999997 0.4274999999999999 2.2649999999999997 0.609 Q 2.2649999999999997 0.7845 2.1959999999999997 0.92175 Q 2.127 1.059 1.9942499999999999 1.137 Q 1.8615 1.2149999999999999 1.6784999999999999 1.2149999999999999 Z M 1.6784999999999999 0.9554999999999999 Q 1.758 0.9554999999999999 1.7999999999999998 0.8594999999999999 Q 1.8419999999999999 0.7635 1.8419999999999999 0.603 Q 1.8419999999999999 0.44699999999999995 1.8014999999999999 0.35624999999999996 Q 1.761 0.26549999999999996 1.6784999999999999 0.26549999999999996 Q 1.5959999999999999 0.26549999999999996 1.5554999999999999 0.35624999999999996 Q 1.515 0.44699999999999995 1.515 0.603 Q 1.515 0.7635 1.557 0.8594999999999999 Q 1.5989999999999998 0.9554999999999999 1.6784999999999999 0.9554999999999999 Z M 2.4345 1.194 L 2.4345 0.9359999999999999 L 2.5755 0.9359999999999999 L 2.5755 0.2865 L 2.4345 0.2865 L 2.4345 0.02849999999999997 L 3.396 0.02849999999999997 L 3.396 0.49949999999999994 L 3.1845 0.49949999999999994 L 3.138 0.2865 L 2.9505 0.2865 L 2.9505 0.5069999999999999 L 3.114 0.5069999999999999 L 3.114 0.6944999999999999 L 2.9505 0.6944999999999999 L 2.9505 0.9359999999999999 L 3.09 0.9359999999999999 L 3.09 1.194 Z M 3.6959999999999997 1.194 L 3.6959999999999997 0.9299999999999999 L 3.816 0.9299999999999999 L 3.816 0.2865 L 3.7125 0.2865 L 3.681 0.48749999999999993 L 3.4755 0.48749999999999993 L 3.4755 0.02849999999999997 L 4.572 0.02849999999999997 L 4.572 0.48749999999999993 L 4.3665 0.48749999999999993 L 4.335 0.2865 L 4.2284999999999995 0.2865 L 4.2284999999999995 0.9299999999999999 L 4.3485 0.9299999999999999 L 4.3485 1.194 Z M 5.046 1.194 L 4.791 0.2865 L 4.671 0.2865 L 4.671 0.026999999999999913 L 5.3235 0.026999999999999913 L 5.3235 0.2865 L 5.2125 0.2865 L 5.3295 0.702 L 5.5200000000000005 0.026999999999999913 L 5.82 0.026999999999999913 L 6.0045 0.6795 L 6.1185 0.2865 L 6.016500000000001 0.2865 L 6.016500000000001 0.026999999999999913 L 6.4995 0.026999999999999913 L 6.4995 0.2865 L 6.3765 0.2865 L 6.126 1.194 L 5.7285 1.194 L 5.5875 0.6765 L 5.439 1.194 Z M 6.5745 1.194 L 6.5745 0.9359999999999999 L 6.6899999999999995 0.9359999999999999 L 6.891 0.2865 L 6.7379999999999995 0.2865 L 6.7379999999999995 0.02849999999999997 L 7.4639999999999995 0.02849999999999997 L 7.7235 0.9359999999999999 L 7.8389999999999995 0.9359999999999999 L 7.8389999999999995 1.194 L 7.1834999999999996 1.194 L 7.1834999999999996 0.9359999999999999 L 7.278 0.9359999999999999 L 7.246499999999999 0.8114999999999999 L 6.9825 0.8114999999999999 L 6.9495 0.9359999999999999 L 7.0889999999999995 0.9359999999999999 L 7.0889999999999995 1.194 Z M 7.02 0.6345 L 7.212 0.6345 L 7.1265 0.27749999999999997 Z M 7.948499999999999 0.9359999999999999 L 8.065499999999998 0.9359999999999999 L 8.065499999999998 0.2865 L 7.948499999999999 0.2865 L 7.948499999999999 0.02849999999999997 L 8.697 0.02849999999999997 Q 8.878499999999999 0.02849999999999997 8.963999999999999 0.10199999999999987 Q 9.049499999999998 0.1755 9.049499999999998 0.345 Q 9.049499999999998 0.45899999999999996 8.98575 0.5205 Q 8.921999999999999 0.582 8.805 0.603 Q 8.91 0.6194999999999999 8.956499999999998 0.68175 Q 9.003 0.744 9.003 0.837 L 9.003 0.9315 L 9.1665 0.9315 L 9.1665 1.194 L 8.931 1.194 Q 8.816999999999998 1.194 8.767499999999998 1.179 Q 8.718 1.164 8.691749999999999 1.0965 Q 8.6655 1.029 8.6655 0.8714999999999999 Q 8.6655 0.7814999999999999 8.636249999999999 0.738 Q 8.607 0.6944999999999999 8.529 0.6944999999999999 L 8.4405 0.6944999999999999 L 8.4405 0.9359999999999999 L 8.5575 0.9359999999999999 L 8.5575 1.194 L 7.948499999999999 1.194 Z M 8.540999999999999 0.5279999999999999 Q 8.6205 0.5279999999999999 8.6595 0.49949999999999994 Q 8.6985 0.471 8.6985 0.3989999999999999 Q 8.6985 0.3464999999999999 8.65875 0.3164999999999999 Q 8.619 0.2865 8.556 0.2865 L 8.4405 0.2865 L 8.4405 0.5279999999999999 Z M 9.242999999999999 1.194 L 9.242999999999999 0.9359999999999999 L 9.383999999999999 0.9359999999999999 L 9.383999999999999 0.2865 L 9.242999999999999 0.2865 L 9.242999999999999 0.02849999999999997 L 10.227 0.02849999999999997 L 10.227 0.4919999999999999 L 10.0395 0.4919999999999999 L 9.969 0.2865 L 9.759 0.2865 L 9.759 0.477 L 9.9465 0.477 L 9.9465 0.6689999999999999 L 9.759 0.6689999999999999 L 9.759 0.9359999999999999 L 9.969 0.9359999999999999 L 10.0395 0.6975 L 10.227 0.6975 L 10.227 1.194 Z" fill="#574848" fill-rule="nonzero"></path></g><g><path d=" M 0.21439985795454544 1.5805388139204548 Q 0.1504794034090909 1.5805388139204548 0.12970525568181818 1.6046421519886365 Q 0.10893110795454544 1.6287454900568183 0.10893110795454544 1.6588413707386365 Q 0.10893110795454544 1.684675887784091 0.12690873579545453 1.7005228338068183 Q 0.14488636363636362 1.7163697798295456 0.1805752840909091 1.7251588423295456 L 0.2570134943181818 1.7440686434659092 Q 0.30948153409090906 1.757119069602273 0.34250710227272724 1.7868154474431819 Q 0.3755326704545454 1.816511825284091 0.3755326704545454 1.8796332741477273 Q 0.3755326704545454 1.9486140980113638 0.32093394886363635 1.9787099786931819 Q 0.26633522727272724 2.0088058593750002 0.1965553977272727 2.0088058593750002 Q 0.16832386363636362 2.0088058593750002 0.1387606534090909 2.0013484730113635 Q 0.10919744318181818 1.9938910866477273 0.08362926136363635 1.9763129616477273 Q 0.08256392045454544 1.985368359375 0.07803622159090909 1.9968207741477273 Q 0.07350852272727272 2.008273188920455 0.064453125 2.008273188920455 Q 0.054865056818181816 2.008273188920455 0.049005681818181816 2.0042781605113635 Q 0.043146306818181816 2.0002831321022727 0.042080965909090905 1.991227734375 L 0.026899857954545452 1.8591254616477273 Q 0.026899857954545452 1.8484720525568183 0.033291903409090905 1.8432785156250002 Q 0.03968394886363636 1.8380849786931819 0.05246803977272727 1.8380849786931819 Q 0.06045809659090909 1.8380849786931819 0.06658380681818181 1.8427458451704546 Q 0.07270951704545454 1.8474067116477273 0.07377485795454546 1.8553967684659092 L 0.07803622159090909 1.8924173650568183 Q 0.08069957386363635 1.9171865411931819 0.11479048295454544 1.9394255326704546 Q 0.14888139204545453 1.9616645241477273 0.18989701704545453 1.9616645241477273 Q 0.23544034090909088 1.9616645241477273 0.2781871448863636 1.945418075284091 Q 0.32093394886363635 1.9291716264204546 0.32093394886363635 1.8793669389204546 Q 0.32093394886363635 1.8434116832386365 0.29922762784090906 1.8292959161931819 Q 0.2775213068181818 1.8151801491477273 0.24769176136363635 1.8066574218750002 L 0.1603338068181818 1.7818882457386365 Q 0.11265980113636363 1.7712348366477273 0.08136541193181818 1.743935475852273 Q 0.05007102272727272 1.7166361150568183 0.05007102272727272 1.6631027343750002 Q 0.05007102272727272 1.604775319602273 0.09574751420454544 1.5716165838068183 Q 0.14142400568181818 1.5384578480113638 0.20561079545454544 1.5384578480113638 Q 0.23330965909090906 1.5384578480113638 0.2624733664772727 1.5453825639204548 Q 0.29163707386363635 1.5523072798295456 0.3108132102272727 1.5682873934659092 Q 0.3108132102272727 1.5571013139204548 0.31787109375 1.5479127485795456 Q 0.32492897727272724 1.5387241832386365 0.33584872159090906 1.5387241832386365 Q 0.3438387784090909 1.5387241832386365 0.3499644886363636 1.5435182173295456 Q 0.35609019886363635 1.5483122514204548 0.35715553977272724 1.5563023082386365 L 0.35901988636363635 1.6620373934659092 Q 0.35901988636363635 1.6734898082386365 0.3520951704545454 1.6786833451704548 Q 0.34517045454545453 1.683876882102273 0.3345170454545454 1.683876882102273 Q 0.3251953125 1.683876882102273 0.3192027698863636 1.6798818536931819 Q 0.31321022727272724 1.675886825284091 0.31214488636363635 1.667097762784091 L 0.3110795454545454 1.6362028764204548 Q 0.3076171875 1.6061069957386365 0.27805397727272724 1.5933229048295456 Q 0.24849076704545453 1.5805388139204548 0.21439985795454544 1.5805388139204548 Z M 0.7872869318181818 1.675886825284091 Q 0.7872869318181818 1.6132980468750002 0.732421875 1.602644637784091 Q 0.6775568181818181 1.5919912286931819 0.6216264204545454 1.5919912286931819 L 0.5664950284090908 1.5919912286931819 L 0.5664950284090908 1.7648427911931819 L 0.6378728693181818 1.7648427911931819 Q 0.6951349431818181 1.7648427911931819 0.7412109375 1.7521918678977273 Q 0.7872869318181818 1.739540944602273 0.7872869318181818 1.675886825284091 Z M 0.8501420454545454 1.6798818536931819 Q 0.8501420454545454 1.7720338423295456 0.7794300426136364 1.7902778053977273 Q 0.7087180397727273 1.8085217684659092 0.6237571022727273 1.8085217684659092 L 0.5664950284090908 1.8085217684659092 L 0.5664950284090908 1.9547398082386365 L 0.6477272727272727 1.9547398082386365 Q 0.6578480113636364 1.9547398082386365 0.6623757102272727 1.9620640269886365 Q 0.6669034090909091 1.9693882457386365 0.6669034090909091 1.9792426491477273 Q 0.6669034090909091 1.9880317116477273 0.6617098721590908 1.9948232599431819 Q 0.6565163352272727 2.0016148082386365 0.6471946022727273 2.0016148082386365 L 0.4343927556818182 2.0016148082386365 Q 0.4250710227272727 2.0016148082386365 0.41987748579545453 1.9948232599431819 Q 0.41468394886363635 1.9880317116477273 0.41468394886363635 1.9792426491477273 Q 0.41468394886363635 1.9693882457386365 0.4192116477272727 1.9620640269886365 Q 0.42373934659090906 1.9547398082386365 0.4338600852272727 1.9547398082386365 L 0.5041725852272727 1.9547398082386365 L 0.5041725852272727 1.5919912286931819 L 0.439453125 1.5919912286931819 Q 0.42933238636363635 1.5919912286931819 0.4248046875 1.5846670099431819 Q 0.42027698863636365 1.5773427911931819 0.42027698863636365 1.567488387784091 Q 0.42027698863636365 1.558699325284091 0.4254705255681818 1.5519077769886365 Q 0.4306640625 1.5451162286931819 0.43998579545454547 1.5451162286931819 L 0.6139026988636364 1.5451162286931819 Q 0.7028586647727273 1.5451162286931819 0.7765003551136364 1.5648250355113638 Q 0.8501420454545454 1.5845338423295456 0.8501420454545454 1.6798818536931819 Z M 0.8711825284090908 1.9792426491477273 Q 0.8711825284090908 1.9693882457386365 0.8757102272727272 1.9620640269886365 Q 0.8802379261363635 1.9547398082386365 0.8903586647727272 1.9547398082386365 L 0.9273792613636362 1.9547398082386365 L 1.1036931818181817 1.5565686434659092 Q 1.1076882102272727 1.5472469105113638 1.1156782670454544 1.539656356534091 Q 1.1236683238636362 1.5320658025568183 1.136452414772727 1.5320658025568183 Q 1.1497691761363635 1.5320658025568183 1.1568270596590908 1.5399226917613638 Q 1.1638849431818181 1.5477795809659092 1.167879971590909 1.5576339843750002 L 1.3279474431818181 1.9547398082386365 L 1.3753551136363635 1.9547398082386365 Q 1.385475852272727 1.9547398082386365 1.389870383522727 1.9620640269886365 Q 1.394264914772727 1.9693882457386365 1.394264914772727 1.9792426491477273 Q 1.394264914772727 1.9880317116477273 1.3892045454545454 1.9948232599431819 Q 1.3841441761363635 2.0016148082386365 1.374822443181818 2.0016148082386365 L 1.203036221590909 2.0016148082386365 Q 1.1937144886363635 2.0016148082386365 1.1885209517045454 1.9948232599431819 Q 1.183327414772727 1.9880317116477273 1.183327414772727 1.9792426491477273 Q 1.183327414772727 1.9693882457386365 1.1878551136363635 1.9620640269886365 Q 1.1923828125 1.9547398082386365 1.2025035511363635 1.9547398082386365 L 1.2608309659090908 1.9547398082386365 L 1.221413352272727 1.8506027343750002 L 1.0283203125 1.8506027343750002 L 0.9865056818181818 1.9547398082386365 L 1.036044034090909 1.9547398082386365 Q 1.0461647727272727 1.9547398082386365 1.050692471590909 1.9620640269886365 Q 1.0552201704545454 1.9693882457386365 1.0552201704545454 1.9792426491477273 Q 1.0552201704545454 1.9880317116477273 1.050026633522727 1.9948232599431819 Q 1.044833096590909 2.0016148082386365 1.0355113636363635 2.0016148082386365 L 0.8908913352272726 2.0016148082386365 Q 0.8815696022727272 2.0016148082386365 0.8763760653409091 1.9948232599431819 Q 0.8711825284090908 1.9880317116477273 0.8711825284090908 1.9792426491477273 Z M 1.044833096590909 1.8095871093750002 L 1.2062322443181817 1.8095871093750002 L 1.1281960227272727 1.6023783025568183 Z M 1.5964133522727273 1.7507270241477273 Q 1.6571377840909092 1.7507270241477273 1.7034801136363638 1.7402067826704546 Q 1.7498224431818181 1.7296865411931819 1.7498224431818181 1.6716254616477273 Q 1.7498224431818181 1.6124990411931819 1.69775390625 1.6022451349431819 Q 1.6456853693181819 1.5919912286931819 1.5865589488636365 1.5919912286931819 L 1.5474076704545454 1.5919912286931819 L 1.5474076704545454 1.7507270241477273 Z M 1.8145419034090908 1.6689621093750002 Q 1.8145419034090908 1.7232944957386365 1.7791193181818181 1.7477973366477273 Q 1.7436967329545454 1.7723001775568183 1.6920276988636365 1.781355575284091 Q 1.7173295454545454 1.7925416548295456 1.7362393465909092 1.810652450284091 Q 1.7551491477272727 1.8287632457386365 1.7671342329545454 1.8577937855113638 L 1.8070845170454546 1.9544734730113638 L 1.8462357954545454 1.9544734730113638 Q 1.8622159090909092 1.9544734730113638 1.8686079545454546 1.960066512784091 Q 1.875 1.9656595525568183 1.875 1.9792426491477273 Q 1.875 1.994157421875 1.8670099431818181 1.9980192826704546 Q 1.8590198863636362 2.0018811434659094 1.8465021306818181 2.0018811434659094 L 1.7309126420454546 2.0016148082386365 Q 1.7215909090909092 2.0016148082386365 1.7163973721590908 1.9948232599431819 Q 1.7112038352272727 1.9880317116477273 1.7112038352272727 1.9792426491477273 Q 1.7112038352272727 1.9693882457386365 1.7157315340909092 1.961930859375 Q 1.7202592329545454 1.9544734730113638 1.7303799715909092 1.9544734730113638 L 1.7434303977272727 1.9544734730113638 L 1.7136008522727273 1.8791006036931819 Q 1.7016157670454546 1.8490047230113638 1.6745827414772727 1.8235697088068183 Q 1.6475497159090908 1.798134694602273 1.6078657670454546 1.798134694602273 L 1.5474076704545454 1.798134694602273 L 1.5474076704545454 1.9544734730113638 L 1.6177201704545454 1.9544734730113638 Q 1.6278409090909092 1.9544734730113638 1.6323686079545454 1.961930859375 Q 1.6368963068181819 1.9693882457386365 1.6368963068181819 1.9792426491477273 Q 1.6368963068181819 1.9880317116477273 1.6317027698863638 1.9948232599431819 Q 1.6265092329545454 2.0016148082386365 1.6171875 2.0016148082386365 L 1.4262251420454546 2.0016148082386365 Q 1.4169034090909092 2.0016148082386365 1.411709872159091 1.9948232599431819 Q 1.4065163352272727 1.9880317116477273 1.4065163352272727 1.9792426491477273 Q 1.4065163352272727 1.9693882457386365 1.4110440340909092 1.961930859375 Q 1.4155717329545454 1.9544734730113638 1.4256924715909092 1.9544734730113638 L 1.4850852272727273 1.9544734730113638 L 1.4850852272727273 1.5919912286931819 L 1.436612215909091 1.5919912286931819 Q 1.4264914772727273 1.5919912286931819 1.421963778409091 1.5846670099431819 Q 1.4174360795454546 1.5773427911931819 1.4174360795454546 1.567488387784091 Q 1.4174360795454546 1.558699325284091 1.4226296164772727 1.5519077769886365 Q 1.427823153409091 1.5451162286931819 1.4371448863636365 1.5451162286931819 L 1.5948153409090908 1.5451162286931819 Q 1.6813742897727273 1.5451162286931819 1.7479580965909092 1.5644255326704548 Q 1.8145419034090908 1.5837348366477273 1.8145419034090908 1.6689621093750002 Z M 1.8960404829545454 1.9792426491477273 Q 1.8960404829545454 1.9693882457386365 1.9005681818181819 1.9620640269886365 Q 1.9050958806818181 1.9547398082386365 1.9152166193181819 1.9547398082386365 L 1.9735440340909092 1.9547398082386365 L 1.9735440340909092 1.5919912286931819 L 1.9152166193181819 1.5919912286931819 Q 1.9050958806818181 1.5919912286931819 1.9005681818181819 1.5846670099431819 Q 1.8960404829545454 1.5773427911931819 1.8960404829545454 1.567488387784091 Q 1.8960404829545454 1.558699325284091 1.9012340198863638 1.5519077769886365 Q 1.9064275568181819 1.5451162286931819 1.9157492897727273 1.5451162286931819 L 2.089133522727273 1.5451162286931819 Q 2.0984552556818183 1.5451162286931819 2.1036487926136362 1.5519077769886365 Q 2.1088423295454546 1.558699325284091 2.1088423295454546 1.567488387784091 Q 2.1088423295454546 1.5773427911931819 2.1044477982954546 1.5846670099431819 Q 2.1000532670454546 1.5919912286931819 2.089932528409091 1.5919912286931819 L 2.0358664772727275 1.5919912286931819 L 2.0358664772727275 1.7773605468750002 L 2.2468039772727275 1.6023783025568183 Q 2.2478693181818183 1.6013129616477273 2.2493341619318183 1.5990491122159092 Q 2.2507990056818183 1.596785262784091 2.2507990056818183 1.5941219105113638 Q 2.2507990056818183 1.5911922230113638 2.24853515625 1.5897273792613638 Q 2.2462713068181817 1.5882625355113638 2.2420099431818183 1.5882625355113638 L 2.2233664772727275 1.5882625355113638 Q 2.213778409090909 1.5882625355113638 2.2091175426136362 1.5830689985795456 Q 2.2044566761363638 1.5778754616477273 2.2044566761363638 1.567488387784091 Q 2.2044566761363638 1.558699325284091 2.2095170454545454 1.5519077769886365 Q 2.2145774147727275 1.5451162286931819 2.2238991477272725 1.5451162286931819 L 2.3647904829545454 1.5451162286931819 Q 2.374112215909091 1.5451162286931819 2.3791725852272725 1.5519077769886365 Q 2.3842329545454546 1.558699325284091 2.3842329545454546 1.567488387784091 Q 2.3842329545454546 1.5773427911931819 2.3798384232954546 1.5846670099431819 Q 2.3754438920454546 1.5919912286931819 2.365323153409091 1.5919912286931819 L 2.3232421875 1.5919912286931819 L 2.1618430397727275 1.7310182173295456 L 2.371182528409091 1.9547398082386365 L 2.4090021306818183 1.9547398082386365 Q 2.4191228693181817 1.9547398082386365 2.4235174005681817 1.9620640269886365 Q 2.4279119318181817 1.9693882457386365 2.4279119318181817 1.9792426491477273 Q 2.4279119318181817 1.9880317116477273 2.4228515625 1.9948232599431819 Q 2.4177911931818183 2.0016148082386365 2.4084694602272725 2.0016148082386365 L 2.2457386363636362 2.0016148082386365 Q 2.236416903409091 2.0016148082386365 2.231356534090909 1.9948232599431819 Q 2.2262961647727275 1.9880317116477273 2.2262961647727275 1.9792426491477273 Q 2.2262961647727275 1.9693882457386365 2.2306906960227275 1.9620640269886365 Q 2.2350852272727275 1.9547398082386365 2.245205965909091 1.9547398082386365 L 2.2982066761363638 1.9547398082386365 L 2.1218927556818183 1.7589834161931819 L 2.0358664772727275 1.825300887784091 L 2.0358664772727275 1.9547398082386365 L 2.1115056818181817 1.9547398082386365 Q 2.1216264204545454 1.9547398082386365 2.1261541193181817 1.9620640269886365 Q 2.1306818181818183 1.9693882457386365 2.1306818181818183 1.9792426491477273 Q 2.1306818181818183 1.9880317116477273 2.12548828125 1.9948232599431819 Q 2.1202947443181817 2.0016148082386365 2.1109730113636362 2.0016148082386365 L 1.9157492897727273 2.0016148082386365 Q 1.9064275568181819 2.0016148082386365 1.9012340198863638 1.9948232599431819 Q 1.8960404829545454 1.9880317116477273 1.8960404829545454 1.9792426491477273 Z M 2.6447088068181817 1.5805388139204548 Q 2.580788352272727 1.5805388139204548 2.5600142045454546 1.6046421519886365 Q 2.5392400568181817 1.6287454900568183 2.5392400568181817 1.6588413707386365 Q 2.5392400568181817 1.684675887784091 2.557217684659091 1.7005228338068183 Q 2.5751953125 1.7163697798295456 2.6108842329545454 1.7251588423295456 L 2.687322443181818 1.7440686434659092 Q 2.7397904829545454 1.757119069602273 2.7728160511363633 1.7868154474431819 Q 2.8058416193181817 1.816511825284091 2.8058416193181817 1.8796332741477273 Q 2.8058416193181817 1.9486140980113638 2.7512428977272725 1.9787099786931819 Q 2.6966441761363633 2.0088058593750002 2.626864346590909 2.0088058593750002 Q 2.5986328125 2.0088058593750002 2.569069602272727 2.0013484730113635 Q 2.5395063920454546 1.9938910866477273 2.5139382102272725 1.9763129616477273 Q 2.5128728693181817 1.985368359375 2.5083451704545454 1.9968207741477273 Q 2.503817471590909 2.008273188920455 2.4947620738636362 2.008273188920455 Q 2.485174005681818 2.008273188920455 2.479314630681818 2.0042781605113635 Q 2.473455255681818 2.0002831321022727 2.472389914772727 1.991227734375 L 2.4572088068181817 1.8591254616477273 Q 2.4572088068181817 1.8484720525568183 2.463600852272727 1.8432785156250002 Q 2.4699928977272725 1.8380849786931819 2.4827769886363633 1.8380849786931819 Q 2.4907670454545454 1.8380849786931819 2.496892755681818 1.8427458451704546 Q 2.503018465909091 1.8474067116477273 2.5040838068181817 1.8553967684659092 L 2.5083451704545454 1.8924173650568183 Q 2.5110085227272725 1.9171865411931819 2.5450994318181817 1.9394255326704546 Q 2.579190340909091 1.9616645241477273 2.620205965909091 1.9616645241477273 Q 2.665749289772727 1.9616645241477273 2.70849609375 1.945418075284091 Q 2.7512428977272725 1.9291716264204546 2.7512428977272725 1.8793669389204546 Q 2.7512428977272725 1.8434116832386365 2.7295365767045454 1.8292959161931819 Q 2.707830255681818 1.8151801491477273 2.6780007102272725 1.8066574218750002 L 2.590642755681818 1.7818882457386365 Q 2.54296875 1.7712348366477273 2.5116743607954546 1.743935475852273 Q 2.480379971590909 1.7166361150568183 2.480379971590909 1.6631027343750002 Q 2.480379971590909 1.604775319602273 2.5260564630681817 1.5716165838068183 Q 2.5717329545454546 1.5384578480113638 2.6359197443181817 1.5384578480113638 Q 2.6636186079545454 1.5384578480113638 2.692782315340909 1.5453825639204548 Q 2.7219460227272725 1.5523072798295456 2.741122159090909 1.5682873934659092 Q 2.741122159090909 1.5571013139204548 2.7481800426136362 1.5479127485795456 Q 2.7552379261363633 1.5387241832386365 2.7661576704545454 1.5387241832386365 Q 2.774147727272727 1.5387241832386365 2.7802734375 1.5435182173295456 Q 2.7863991477272725 1.5483122514204548 2.7874644886363633 1.5563023082386365 L 2.7893288352272725 1.6620373934659092 Q 2.7893288352272725 1.6734898082386365 2.7824041193181817 1.6786833451704548 Q 2.775479403409091 1.683876882102273 2.7648259943181817 1.683876882102273 Q 2.7555042613636362 1.683876882102273 2.74951171875 1.6798818536931819 Q 2.7435191761363633 1.675886825284091 2.7424538352272725 1.667097762784091 L 2.7413884943181817 1.6362028764204548 Q 2.7379261363636362 1.6061069957386365 2.7083629261363633 1.5933229048295456 Q 2.678799715909091 1.5805388139204548 2.6447088068181817 1.5805388139204548 Z" fill="#b9625d" fill-rule="nonzero"></path></g><g clip-path="url(&quot;#SvgjsClipPath1023&quot;)"><path d=" M -2.3997608462893134 1.0078020912587211 L -1.9115066212355745 0.5196501152236311 L -1.4233546452004844 1.0079043402773704 L -1.9116088702542233 1.49605631631246 Z" fill="#c5b3b3" transform="matrix(1,0,0,1,0,0)" fill-rule="nonzero"></path><path d=" M -2.1641875073571195 0.27875236985210394 L -2.8932527846754716 1.007817647170456 L -2.1778660303837305 1.7228624383865323 L -2.5054666568710573 2.0504630648738598 L -2.5119639553086976 2.044307729511885 L -3.220853411162799 1.335418273657783 L -3.2406872695513846 1.3152424521935326 C -3.4041456197193827 1.152240052793088 -3.4577198349069413 1.0140869702243194 -3.4014099151140607 0.9007832044872272 C -3.3718517396130365 0.8434176998206812 -3.3328996719036788 0.7914045530277706 -3.286168358614866 0.7468998204378574 L -2.4917881338444468 -0.048848256635223165 Z" fill="#574848" transform="matrix(1,0,0,1,0,0)" fill-rule="evenodd"></path><path d=" M -1.658766081523853 0.27875236985210394 L -0.9297008042055004 1.007817647170456 L -1.6447455954215766 1.7228624383865323 L -1.3171449689342496 2.0504630648738598 L -1.3106476704966097 2.044307729511885 L -0.6021001777181736 1.335418273657783 L -0.5822663193295878 1.3152424521935326 C -0.4188079691615898 1.152240052793088 -0.36523375397403024 1.0140869702243194 -0.4215436737669114 0.9007832044872272 C -0.450688371271573 0.8435183096710075 -0.4891735273709825 0.7915113419691028 -0.5354173779634457 0.7468998204378564 L -1.3311654550365257 -0.048848256635223165 Z" fill="#b9625d" transform="matrix(1,0,0,1,0,0)" fill-rule="evenodd"></path></g></g><defs><clipPath id="SvgjsClipPath1023"><path d=" M -3.4229535888809726 -0.0488482566352233 h 3.0229535888809727 v 2.099311321509083 h -3.0229535888809727 Z"></path></clipPath></defs></svg>