<svg width="47" height="48" viewBox="0 0 47 48" fill="none" xmlns="http://www.w3.org/2000/svg">
<path d="M19.6875 26.6667H1.89583C1.13333 26.6667 0.625 27.2 0.625 28V46.6667C0.625 47.4667 1.13333 48 1.89583 48H19.6875C20.45 48 20.9583 47.4667 20.9583 46.6667V28C20.9583 27.2 20.45 26.6667 19.6875 26.6667ZM18.4167 45.3333H3.16667V29.3333H18.4167V45.3333ZM19.6875 0H1.89583C1.13333 0 0.625 0.533333 0.625 1.33333V20C0.625 20.8 1.13333 21.3333 1.89583 21.3333H19.6875C20.45 21.3333 20.9583 20.8 20.9583 20V1.33333C20.9583 0.533333 20.45 0 19.6875 0ZM18.4167 18.6667H3.16667V2.66667H18.4167V18.6667ZM45.1042 0H27.3125C26.55 0 26.0417 0.533333 26.0417 1.33333V20C26.0417 20.8 26.55 21.3333 27.3125 21.3333H45.1042C45.8667 21.3333 46.375 20.8 46.375 20V1.33333C46.375 0.533333 45.8667 0 45.1042 0ZM43.8333 18.6667H28.5833V2.66667H43.8333V18.6667ZM45.1042 36H37.4792V28C37.4792 27.2 36.9708 26.6667 36.2083 26.6667C35.4458 26.6667 34.9375 27.2 34.9375 28V36H27.3125C26.55 36 26.0417 36.5333 26.0417 37.3333C26.0417 38.1333 26.55 38.6667 27.3125 38.6667H34.9375V46.6667C34.9375 47.4667 35.4458 48 36.2083 48C36.9708 48 37.4792 47.4667 37.4792 46.6667V38.6667H45.1042C45.8667 38.6667 46.375 38.1333 46.375 37.3333C46.375 36.5333 45.8667 36 45.1042 36Z" fill="black"/>
</svg>
