<svg width="109" height="116" viewBox="0 0 109 116" fill="none" xmlns="http://www.w3.org/2000/svg">
<path d="M54.5543 9.68556C29.4812 9.66963 9.14321 31.2878 9.12824 57.9711C9.11327 84.6544 29.4269 106.299 54.5 106.314C66.5458 106.335 78.1031 101.248 86.6154 92.1779C95.1311 83.1231 99.9189 70.8397 99.9261 58.0289C99.9411 31.3456 79.6275 9.70149 54.5543 9.68556ZM54.5557 101.481C31.9907 101.497 13.686 82.0437 13.6705 58.0295C13.6552 34.0157 31.9353 14.5351 54.5 14.5189C65.3413 14.4982 75.7433 19.0761 83.4043 27.2394C91.0681 35.3877 95.3778 46.4415 95.385 57.9705C95.4005 81.9844 77.1205 101.465 54.5557 101.481ZM57.7108 58L72.1608 42.6221C73.0262 41.6825 73.0262 40.1789 72.1608 39.2393C71.2832 38.2861 69.8456 38.2708 68.95 39.2048L54.5 54.5827L40.0501 39.2051C39.1672 38.2844 37.7543 38.2844 36.8714 39.2051C35.9757 40.139 35.9613 41.6689 36.839 42.6221L51.2889 58L36.839 73.3779C36.4132 73.8311 36.1742 74.4456 36.1739 75.0863C36.1739 76.4209 37.1904 77.503 38.4445 77.5033C39.0469 77.5042 39.6248 77.2493 40.0501 76.7953L54.5 61.4173L68.95 76.7953C69.3752 77.2493 69.9531 77.5042 70.5555 77.5033V77.5036C71.1576 77.5033 71.7347 77.2487 72.1605 76.7958C73.0475 75.8521 73.0475 74.322 72.1608 73.3779L57.7108 58Z" fill="black"/>
</svg>
