<svg width="157" height="159" viewBox="0 0 157 159" fill="none" xmlns="http://www.w3.org/2000/svg">
<path d="M26.1667 79.5C26.1667 81.3293 27.6312 82.8125 29.4375 82.8125H86.9586L69.6458 100.345C69.0325 100.967 68.6879 101.809 68.6879 102.687C68.6875 104.516 70.152 106 71.9584 106C72.826 106.001 73.6581 105.652 74.2705 105.03L97.1664 81.842C97.1668 81.8416 97.1672 81.8416 97.1676 81.8412C98.444 80.5477 98.4436 78.4511 97.1664 77.1584L74.2705 53.9709C73.0032 52.7311 70.9937 52.7311 69.726 53.9709C68.4268 55.2418 68.3909 57.3388 69.6458 58.6545L86.9586 76.1875H29.4375C27.6312 76.1875 26.1667 77.6707 26.1667 79.5ZM114.479 13.25H42.5209C33.4921 13.2585 26.1751 20.6688 26.1667 29.8125V56.3125C26.1667 58.1418 27.6312 59.625 29.4375 59.625C31.2438 59.625 32.7084 58.1418 32.7084 56.3125V29.8125C32.7143 24.3266 37.1039 19.8811 42.5209 19.875H114.479C119.896 19.8811 124.286 24.3266 124.292 29.8125V129.188C124.286 134.673 119.896 139.119 114.479 139.125H42.5209C37.1039 139.119 32.7143 134.673 32.7084 129.188V102.688C32.7084 100.858 31.2438 99.375 29.4375 99.375C27.6312 99.375 26.1667 100.858 26.1667 102.688V129.188C26.1751 138.331 33.4921 145.742 42.5209 145.75H114.479C123.508 145.742 130.825 138.331 130.833 129.188V29.8125C130.825 20.6688 123.508 13.2585 114.479 13.25Z" fill="black"/>
</svg>
