<svg width="103" height="92" viewBox="0 0 103 92" fill="none" xmlns="http://www.w3.org/2000/svg">
<path d="M83.6875 26.8333H77.25V23C77.2421 16.6515 71.4825 11.507 64.375 11.5H19.3125C13.3892 11.5049 8.58881 15.7926 8.58331 21.0833V69C8.59117 75.3485 14.3508 80.493 21.4583 80.5H83.6875C89.6108 80.4951 94.4112 76.2074 94.4167 70.9167V36.4167C94.4112 31.1259 89.6108 26.8382 83.6875 26.8333ZM19.3125 15.3333H64.375C69.113 15.3387 72.9523 18.768 72.9583 23V26.8333H19.3125C15.7571 26.8333 12.875 24.259 12.875 21.0833C12.875 17.9077 15.7571 15.3333 19.3125 15.3333ZM90.125 61.3333H81.5417C76.8013 61.3333 72.9583 57.9008 72.9583 53.6667C72.9583 49.4325 76.8013 46 81.5417 46H90.125V61.3333ZM90.125 42.1667H81.5417C74.431 42.1667 68.6667 47.3154 68.6667 53.6667C68.6667 60.018 74.431 65.1667 81.5417 65.1667H90.125V70.9167C90.1211 74.0909 87.2413 76.6632 83.6875 76.6667H21.4583C16.7203 76.6613 12.881 73.232 12.875 69V28.7463C14.7298 29.9949 16.9898 30.6692 19.3125 30.6667H83.6875C87.2413 30.6702 90.1211 33.2424 90.125 36.4167V42.1667Z" fill="black"/>
</svg>
