<svg width="76" height="64" viewBox="0 0 76 64" fill="none" xmlns="http://www.w3.org/2000/svg">
<path d="M74.1 2.66252C74.1 2.02085 73.3583 1.70001 72.6166 1.37918C58.525 -1.82915 43.3208 2.34168 34.05 11.9667L29.2291 16.7792L19.2166 14.5333C15.1375 13.25 11.0583 14.8542 9.20414 18.0625L1.41664 29.9333C1.41664 29.9333 1.41664 30.2542 1.04581 30.2542C0.674972 31.2167 1.41664 31.8583 2.52914 32.1792L15.1375 34.425C14.025 37.3125 12.9125 40.2 12.5416 43.0875C12.5416 43.7292 12.5416 44.05 12.9125 44.3708L24.0375 53.675C24.4083 53.9959 24.7791 53.9959 25.5208 53.9959C28.8583 53.675 32.5666 53.0334 35.9041 52.0709L38.5 62.6583C38.5 63.3 39.6125 63.9417 40.3541 63.9417C40.725 63.9417 41.0958 63.9417 41.0958 63.6209L54.8166 56.8833C58.1541 55.2792 59.6375 51.75 58.8958 48.5417L56.3 39.2375L61.4916 35.0667C72.9875 27.6875 77.8083 14.8542 74.1 2.66252ZM5.86664 29.6125L12.1708 19.6667C13.2833 17.7417 15.5083 17.1 17.7333 17.7417L26.2625 19.6667L22.5541 23.5167C20.3291 26.0833 18.1041 28.65 16.6208 31.5375L5.86664 29.6125ZM53.3333 54.9583L41.8375 60.7333L39.6125 51.4292C42.95 50.1458 45.9166 48.2208 48.8833 46.2958L53.7041 42.4458L55.9291 49.825C55.9291 51.75 55.1875 53.9958 53.3333 54.9583ZM59.2666 33.4625L46.2875 43.7292C40.725 47.9 33.6791 50.4667 26.2625 51.1083L16.6208 42.7667C17.7333 36.35 20.7 30.2542 25.5208 25.4417L31.4541 19.6667L31.825 19.3458L37.0166 14.2125C45.175 5.87085 58.525 2.02085 70.7625 4.26668C73.3583 15.175 69.2791 26.4042 59.2666 33.4625ZM54.8166 11.9667C50.7375 11.9667 47.7708 14.8542 47.7708 18.0625C47.7708 21.2708 51.1083 24.1583 54.8166 24.1583C58.8958 24.1583 61.8625 21.2708 61.8625 18.0625C61.8625 14.8542 58.8958 11.9667 54.8166 11.9667ZM54.8166 21.2708C52.9625 21.2708 51.4791 19.9875 51.4791 18.3833C51.4791 16.7792 52.9625 15.4958 54.8166 15.4958C56.6708 15.4958 58.1541 16.7792 58.1541 18.3833C58.1541 19.9875 56.6708 21.2708 54.8166 21.2708Z" fill="black"/>
</svg>
