<svg width="75" height="83" viewBox="0 0 75 83" fill="none" xmlns="http://www.w3.org/2000/svg">
<path d="M2.66671 66.25C1.37813 66.25 0.333374 67.1735 0.333374 68.3125V80.6898C0.334228 81.8283 1.3787 82.7508 2.66671 82.75H2.66956C3.95728 82.7492 5.00089 81.826 5.00004 80.6875V68.3125C5.00004 67.1735 3.95528 66.25 2.66671 66.25ZM26 49.75C24.7115 49.75 23.6667 50.6735 23.6667 51.8125V80.6898C23.6676 81.8283 24.712 82.7508 26 82.75H26.0029C27.2906 82.7492 28.3342 81.826 28.3334 80.6875V51.8125C28.3334 50.6735 27.2886 49.75 26 49.75ZM72.6667 0.25C71.3781 0.25 70.3334 1.17349 70.3334 2.3125V80.6898C70.3342 81.8283 71.3787 82.7508 72.6667 82.75H72.6696C73.9573 82.7492 75.0009 81.826 75 80.6875V2.3125C75 1.17349 73.9553 0.25 72.6667 0.25ZM49.3334 29.125C48.0448 29.125 47 30.0485 47 31.1875V80.6898C47.0009 81.8283 48.0454 82.7508 49.3334 82.75H49.3362C50.6239 82.7492 51.6676 81.826 51.6667 80.6875V31.1875C51.6667 30.0485 50.6219 29.125 49.3334 29.125Z" fill="black"/>
</svg>
